<svg width="200px" viewBox="0 0 200 45" version="1.1" xmlns="http://www.w3.org/2000/svg" xmlns:xlink="http://www.w3.org/1999/xlink">
    <g id="Main" stroke="none" stroke-width="1" fill="none" fill-rule="evenodd">
        <g id="type-tool" fill="#7A7A7A">
            <path d="M30.5905677,1.91551294 C30.4527896,1.68927685 30.2487898,1.55309142 30.0301232,1.55309142 C29.9056786,1.55309142 29.77679,1.59700803 29.6523454,1.69371244 L29.4047895,1.91551227 C29.1465674,2.15505581 28.8834564,2.15638656 28.5532345,2.15638656 L5.82567915,2.15638656 C5.49545725,2.15638656 5.23234622,2.15505581 4.97412411,1.91551227 L4.72656823,1.69371244 C4.60212365,1.59700803 4.47323503,1.55309142 4.34879045,1.55309142 C4.13012386,1.55309142 3.92612403,1.68927685 3.78834598,1.91551294 L0.246568091,8.40936833 C0.171456872,8.5459971 0.134567901,8.67552812 0.134567901,8.79574393 C0.134567901,9.01399488 0.256790123,9.20208138 0.497678931,9.34580791 L2.35901248,10.3425764 C2.49856801,10.4233119 2.63012386,10.4632356 2.75190189,10.4632356 C2.96790191,10.4632356 3.15367936,10.3381401 3.29723473,10.0919422 L3.4403459,9.84663163 C5.1172346,6.97077496 7.80301205,5.75220664 11.4101233,5.75220664 L13.5790123,5.75220664 L13.5790123,28.5470188 C13.5790123,30.8821273 12.8425676,32.650759 10.5799007,32.7594407 L10.3136783,32.7594407 C9.88034495,32.7594407 9.64701161,32.9923306 9.64701161,33.4248402 L9.64701161,34.7609622 C9.64701161,35.1934718 9.88034495,35.4263617 10.3136783,35.4263617 L23.9794559,35.4263617 C24.4127892,35.4263617 24.6461225,35.1934718 24.6461225,34.7609622 L24.6461225,33.4248402 C24.6461225,32.9923306 24.4127892,32.7594407 23.9794559,32.7594407 L23.6803449,32.7594407 C21.4176781,32.650759 20.6812333,30.8821273 20.6812333,28.5470188 L20.6812333,5.75220664 L22.968789,5.75220664 C26.5759002,5.75220664 29.2616777,6.97077496 30.9385664,9.84663163 L31.0816775,10.0919422 C31.2252329,10.3381401 31.4110104,10.4632356 31.6270104,10.4632356 C31.7487884,10.4632356 31.8803443,10.4233119 32.0198998,10.3425764 L33.8812333,9.34580791 C34.1279001,9.20296877 34.2541222,9.01754443 34.2541222,8.80151162 C34.2541222,8.67952171 34.2141225,8.54821591 34.1323449,8.409369 L30.5905677,1.91551294 Z M44.4496788,13.2299657 C44.0163455,13.2299657 43.7830122,13.4628556 43.7830122,13.8953652 L43.7830122,15.2261642 C43.7830122,15.6586739 44.0163455,15.8915637 44.4496788,15.8915637 L45.2367903,15.8915637 C45.9661238,15.8915637 46.2496795,16.2486616 46.2496795,16.8315515 C46.2496795,17.5927687 45.7652354,18.739474 45.1603464,19.9762301 L41.9345686,26.5694521 L38.9585683,20.06495 C38.4319013,18.9138091 37.9759016,17.8212229 37.9759016,17.0427054 C37.9759016,16.3387129 38.3492346,15.8915644 39.3816789,15.8915644 L39.4705678,15.8915644 C39.8954566,15.8866847 40.1243452,15.6542383 40.1243452,15.2261649 L40.1243452,13.8953659 C40.1243452,13.4672925 39.8954566,13.234846 39.4705678,13.2299664 L29.2012346,13.2299664 C28.7679012,13.2299664 28.5345679,13.4628562 28.5345679,13.8953659 L28.5345679,15.2261649 C28.5345679,15.6586746 28.7679012,15.8915644 29.2012346,15.8915644 L29.3096791,15.8915644 C30.4256791,15.8915644 30.8319013,16.5161528 31.8803456,18.6884604 L38.403012,32.2022803 L33.4354563,42.8344767 C33.2496788,43.2337163 33.3732344,43.5442361 33.76079,43.721676 L36.0376787,44.8750351 C36.4256785,45.052475 36.7363454,44.9193951 36.9163455,44.5645153 L49.8065677,18.6640622 C50.8247901,16.4540484 51.4630123,15.8915644 52.407901,15.8915644 L53.0421234,15.8915644 C53.4754567,15.8915644 53.70879,15.6586746 53.70879,15.2261649 L53.70879,13.8953659 C53.70879,13.4628562 53.4754567,13.2299664 53.0421234,13.2299664 L44.4496788,13.2299657 Z M64.9803456,12.7526521 C64.9914567,12.6643755 64.9763458,12.6195722 64.919457,12.6195722 L64.8150122,12.6195722 C64.6852345,12.6195722 64.5172346,12.6639321 64.4390126,12.7082921 C62.4470123,13.5755296 60.645679,14.409053 56.2834571,14.409053 C55.8350128,14.409053 55.6274573,14.621537 55.6274573,14.9941604 L55.6274573,16.497963 C55.6141238,16.8022724 55.7105682,17.0227415 56.1492346,17.0706503 C58.6021236,17.3381409 58.7781239,19.7979008 58.7767907,22.1755953 L58.7767907,36.5797201 L58.7683461,37.4225595 C58.8114573,39.8179976 57.7167904,41.6367562 55.5439015,41.6367562 C55.0790123,41.6367562 54.845679,41.8585561 54.845679,42.3021557 L54.845679,43.6329547 C54.845679,44.0765543 55.0790123,44.2983542 55.5123457,44.2983542 L68.2381235,44.2983542 C68.6714569,44.2983542 68.9047902,44.0765543 68.9047902,43.6329547 L68.9047902,42.3021557 C68.9047902,41.8585561 68.6714569,41.6367562 68.2381235,41.6367562 C66.0652347,41.6367562 64.9705678,39.8179976 64.9705678,37.4225595 L64.9705678,33.8844088 C66.5376787,35.2400493 68.4985673,35.9586806 70.7416785,35.9586806 C76.1141232,35.9586806 81.1194563,32.538971 81.1194563,24.322618 C81.1194563,15.7411828 75.2790117,12.6195722 71.271012,12.6195722 C66.7007897,12.6195722 64.965234,15.5193829 64.4821231,16.7064554 L64.9803456,12.7526521 Z M64.9723453,19.4567733 C64.9759009,19.4567733 65.9612342,16.5343385 69.2576785,16.5343385 C72.8985673,16.5343385 75.402123,20.0724891 75.402123,25.7572185 C75.402123,29.428449 74.2350121,33.0743947 69.9359012,33.0743947 C66.9807898,33.0743947 65.3016788,30.304115 64.9723453,27.5480301 L64.9723453,19.4567733 Z M103.12879,21.8686251 C103.416346,21.7430863 103.494123,21.5625409 103.494123,21.31102 C103.494123,17.9653914 100.22879,12.7428928 94.350123,12.7428928 C89.1145674,12.7428928 83.7790117,15.9035404 83.7790117,24.1318707 C83.7790117,30.5534191 88.3287892,35.9586813 95.7021223,35.9586813 C100.203011,35.9586813 102.951456,33.8799732 104.612789,30.7832041 C104.742123,30.5418858 104.894567,30.2455615 104.894567,30.005574 C104.894567,29.8662837 104.842567,29.7460679 104.705234,29.6657765 C103.287456,28.8366886 103.210568,28.7998697 102.941234,28.7998697 C102.835012,28.7998697 102.655901,28.8535456 102.559012,28.9937233 C101.00479,31.2392245 98.7843455,32.2714811 96.9061235,32.2714811 C93.4470123,32.2714811 91.2416792,29.9496807 90.2274566,27.4961311 L103.12879,21.8686251 Z M89.69279,24.7236332 C89.334123,23.675851 89.2776784,22.2124155 89.2776784,21.3389676 C89.2776784,18.4582314 90.8216786,16.2562027 93.265234,16.2562027 C95.3083452,16.2562027 96.8354563,18.3114 96.8354563,21.1304759 L89.69279,24.7236332 Z" id="Type-Copy"></path>
            <path d="M136.253531,2.22356826 C136.115753,1.99733216 135.911753,1.86114674 135.693086,1.86114674 C135.568642,1.86114674 135.439753,1.90506335 135.315308,2.00176775 L135.067752,2.22356758 C134.80953,2.46311113 134.546419,2.46444187 134.216197,2.46444187 L111.488642,2.46444187 C111.15842,2.46444187 110.895309,2.46311113 110.637087,2.22356758 L110.389531,2.00176775 C110.265087,1.90506335 110.136198,1.86114674 110.011753,1.86114674 C109.793087,1.86114674 109.589087,1.99733216 109.451309,2.22356826 L105.909531,8.71742364 C105.83442,8.85405242 105.797531,8.98358344 105.797531,9.10379925 C105.797531,9.3220502 105.919753,9.5101367 106.160642,9.65386323 L108.021975,10.6506317 C108.161531,10.7313672 108.293087,10.7712909 108.414865,10.7712909 C108.630865,10.7712909 108.816642,10.6461954 108.960198,10.3999975 L109.103309,10.1546869 C110.780198,7.27883027 113.465975,6.06026196 117.073086,6.06026196 L119.241975,6.06026196 L119.241975,28.8550741 C119.241975,31.1901826 118.505531,32.9588143 116.242864,33.0674961 L115.976641,33.0674961 C115.543308,33.0674961 115.309975,33.3003859 115.309975,33.7328955 L115.309975,35.0690175 C115.309975,35.5015272 115.543308,35.734417 115.976641,35.734417 L129.642419,35.734417 C130.075752,35.734417 130.309085,35.5015272 130.309085,35.0690175 L130.309085,33.7328955 C130.309085,33.3003859 130.075752,33.0674961 129.642419,33.0674961 L129.343308,33.0674961 C127.080641,32.9588143 126.344196,31.1901826 126.344196,28.8550741 L126.344196,6.06026196 L128.631752,6.06026196 C132.238863,6.06026196 134.924641,7.27883027 136.601529,10.1546869 L136.744641,10.3999975 C136.888196,10.6461954 137.073973,10.7712909 137.289973,10.7712909 C137.411751,10.7712909 137.543307,10.7313672 137.682863,10.6506317 L139.544196,9.65386323 C139.790863,9.51102408 139.917085,9.32559975 139.917085,9.10956693 C139.917085,8.98757703 139.877085,8.85627123 139.795308,8.71742432 L136.253531,2.22356826 Z M143.25042,13.9656511 C139.057975,15.8283263 136.606864,19.9901786 136.606864,24.3973415 C136.606864,26.0155929 136.937086,27.6666709 137.633087,29.2494341 C139.591754,33.6401834 143.852198,36.2693987 148.267754,36.2693987 C149.779754,36.2693987 151.309532,35.9610971 152.771754,35.3098931 C156.960643,33.4481053 159.431309,29.2915766 159.431309,24.8884067 C159.431309,23.2666064 159.096642,21.6119796 158.389087,20.0256674 C156.429976,15.6344742 152.168642,13.0088077 147.752198,13.0088077 C146.241087,13.0088077 144.711753,13.3162219 143.25042,13.9656518 L143.25042,13.9656511 Z M144.582864,16.9532958 C145.187309,16.6849178 145.781087,16.5615972 146.358864,16.5615972 C149.096642,16.5615972 151.472198,19.3269973 152.876643,22.4761115 C153.633531,24.1733236 154.119309,26.0049463 154.119309,27.6507013 C154.119309,29.7036804 153.364198,31.4678765 151.439309,32.3231366 C150.833976,32.5932886 150.238865,32.7174966 149.660198,32.7174966 C146.923753,32.7174966 144.549531,29.9476602 143.145531,26.8003208 C142.388642,25.1031087 141.902865,23.2714861 141.902865,21.625731 C141.902865,19.5727519 142.657976,17.8085558 144.582865,16.9532958 L144.582864,16.9532958 Z M168.761531,13.9656511 C164.569086,15.8283263 162.117976,19.9901786 162.117976,24.3973415 C162.117976,26.0155929 162.448198,27.6666709 163.144198,29.2494341 C165.102865,33.6401834 169.363309,36.2693987 173.778865,36.2693987 C175.290865,36.2693987 176.820643,35.9610971 178.282865,35.3098931 C182.471754,33.4481053 184.94242,29.2915766 184.94242,24.8884067 C184.94242,23.2666064 184.607754,21.6119796 183.900198,20.0256674 C181.941087,15.6344742 177.679753,13.0088077 173.263309,13.0088077 C171.752198,13.0088077 170.222865,13.3162219 168.761531,13.9656518 L168.761531,13.9656511 Z M170.093975,16.9532958 C170.69842,16.6849178 171.292198,16.5615972 171.869976,16.5615972 C174.607754,16.5615972 176.983309,19.3269973 178.387754,22.4761115 C179.144643,24.1733236 179.63042,26.0049463 179.63042,27.6507013 C179.63042,29.7036804 178.875309,31.4678765 176.95042,32.3231366 C176.345087,32.5932886 175.749976,32.7174966 175.171309,32.7174966 C172.434864,32.7174966 170.060642,29.9476602 168.656642,26.8003208 C167.899753,25.1031087 167.413976,23.2714861 167.413976,21.625731 C167.413976,19.5727519 168.169087,17.8085558 170.093976,16.9532958 L170.093975,16.9532958 Z M195.979753,0.318307183 C195.937086,0.251767234 195.933087,0.246444255 195.876198,0.246444255 L195.771753,0.246887611 C195.702864,0.247330967 195.64242,0.302780924 195.57353,0.35246387 C194.379308,1.21082948 191.909086,2.90626743 187.225975,4.45753549 C186.808642,4.59549502 186.583753,4.6744557 186.583753,5.04264355 L186.583753,6.54644613 C186.57042,6.85075552 186.666864,7.07122461 187.105531,7.11913345 C189.55842,7.38662399 189.733086,9.84638396 189.733086,12.2236344 L189.733086,28.8550727 C189.776197,31.2655931 188.68153,33.0728184 186.508641,33.0728184 C186.075308,33.0728184 185.841975,33.3057082 185.841975,33.7382178 L185.841975,35.0690168 C185.841975,35.5015265 186.075308,35.7344163 186.508641,35.7344163 L199.247308,35.7344163 C199.680641,35.7344163 199.913974,35.5015265 199.913974,35.0690168 L199.913974,33.7382178 C199.913974,33.3057082 199.680641,33.0728184 199.247308,33.0728184 C197.074419,33.0728184 195.979752,31.2655931 195.979752,28.8550727 L195.979753,0.318307183 Z" id="Tool"></path>
        </g>
    </g>
</svg>
