<?xml version="1.0" encoding="UTF-8"?>
<svg width="121px" height="111px" viewBox="0 0 121 111" version="1.1" xmlns="http://www.w3.org/2000/svg" xmlns:xlink="http://www.w3.org/1999/xlink">
    <!-- Generator: Sketch 41.2 (35397) - http://www.bohemiancoding.com/sketch -->
    <g id="main-site" stroke="none" stroke-width="1" fill="none" fill-rule="evenodd">
        <g id="Desktop-HD-Copy-2" transform="translate(-478.000000, -986.000000)">
            <g id="work" transform="translate(0.000000, 400.000000)">
                <g id="Group-2" transform="translate(480.000000, 587.000000)">
                    <g id="cold-cup">
                        <path d="M24.0000005,33.3084114 C39.9740047,33.3093471 48,36.7115034 48,36.7115034 L42.4847784,88.0984412 L40.8829457,90.8859704 L38.8043726,104.525938 C38.8043726,104.525938 34.2847722,107.949745 24.0000008,107.951208 C13.7152278,107.949745 9.19562739,104.525938 9.19562739,104.525938 L7.1170543,90.8859704 L5.5152216,88.0984412 L0,36.7115034 C0,36.7115034 8.02599531,33.3093471 23.9999995,33.3084114 Z" id="Combined-Shape" stroke="#7A7A7A" stroke-width="3"></path>
                        <path d="M2.24584123,56.832668 C4.32156888,54.8673217 7.12314871,53.6621277 10.2059542,53.6621277 C16.6044706,53.6621277 21.791493,58.8539912 21.791493,65.2584793 C21.791493,71.6629674 16.6044706,76.8548309 10.2059542,76.8548309 C7.99463521,76.8548309 5.92801521,76.2347227 4.17019517,75.1587604 L2.24584123,56.832668 Z" id="Combined-Shape-Copy" fill="#7A7A7A" transform="translate(12.018667, 65.258479) rotate(-1.000000) translate(-12.018667, -65.258479) "></path>
                        <path d="M46.9787234,36.0810622 C46.9787234,23.9582899 36.6935618,14.1308411 24.0061719,14.1308411 C11.3187821,14.1308411 1.03362045,23.9582899 1.03362045,36.0810622" id="Oval-5" stroke="#7A7A7A" stroke-width="3"></path>
                        <path d="M24,19.682243 L24,0.504672897" id="Line" stroke="#7A7A7A" stroke-width="3" stroke-linecap="round"></path>
                        <path d="M2.11660572,35.7953052 C2.11660572,35.7953052 4.96102061,36.1723313 6.81058843,31.1872079 C8.66015625,26.2020846 13.5324136,27.0315421 15.8297872,23.7013909 C18.1271609,20.3712398 22.9547872,23.260295 23.9316822,19.492005 C24.9085771,15.723715 32.5182846,21.6403147 34.2805851,25.0857915 C36.0428856,28.5312683 38.2864029,28.760441 40.4306848,29.4918224 C42.5749668,30.2232039 44.2579787,35.3275956 44.2579787,35.3275956" id="Path-2" stroke="#7A7A7A" stroke-width="3"></path>
                        <path d="M9.02942154,28.1522707 C9.02942154,28.1522707 18.8083444,30.3271941 23.7484209,27.4792914" id="Path-4" stroke="#7A7A7A" stroke-width="3" stroke-linecap="round"></path>
                        <path d="M6.12765957,88.8224299 C6.12765957,88.8224299 12.3864694,91.4877336 22.6286569,91.4877336" id="Path-5" stroke="#7A7A7A" stroke-width="3" stroke-linecap="round"></path>
                        <path d="M29.6170213,88.8224299 C29.6170213,88.8224299 34.3263548,91.4877336 42.0329122,91.4877336" id="Path-5-Copy" stroke="#7A7A7A" stroke-width="3" stroke-linecap="round" transform="translate(35.824967, 90.155082) scale(-1, 1) translate(-35.824967, -90.155082) "></path>
                    </g>
                    <path d="M59.776,43 L59.776,25.96 L71.224,25.96 L71.224,28.864 L63.088,28.864 L63.088,33.256 L69.856,33.256 L69.856,35.944 L63.088,35.944 L63.088,43 L59.776,43 Z M73.24,43 L73.24,30.424 L76.456,30.424 L76.456,43 L73.24,43 Z M73.24,28.672 L73.24,25.48 L76.456,25.48 L76.456,28.672 L73.24,28.672 Z M91.048,43 L87.832,43 L87.832,35.944 C87.832,34.935995 87.6560018,34.2000023 87.304,33.736 C86.9519982,33.2719977 86.4640031,33.04 85.84,33.04 C85.5199984,33.04 85.1920017,33.1039994 84.856,33.232 C84.5199983,33.3600006 84.2040015,33.5399988 83.908,33.772 C83.6119985,34.0040012 83.3440012,34.2799984 83.104,34.6 C82.8639988,34.9200016 82.6880006,35.2719981 82.576,35.656 L82.576,43 L79.36,43 L79.36,30.424 L82.264,30.424 L82.264,32.752 C82.7280023,31.951996 83.3999956,31.3280022 84.28,30.88 C85.1600044,30.4319978 86.1519945,30.208 87.256,30.208 C88.0400039,30.208 88.6799975,30.3519986 89.176,30.64 C89.6720025,30.9280014 90.0559986,31.3039977 90.328,31.768 C90.6000014,32.2320023 90.7879995,32.759997 90.892,33.352 C90.9960005,33.944003 91.048,34.543997 91.048,35.152 L91.048,43 Z M99.064,43.24 C98.1999957,43.24 97.4000037,43.0720017 96.664,42.736 C95.9279963,42.3999983 95.2960026,41.936003 94.768,41.344 C94.2399974,40.751997 93.8280015,40.060004 93.532,39.268 C93.2359985,38.475996 93.088,37.6240046 93.088,36.712 C93.088,35.7999954 93.2279986,34.9520039 93.508,34.168 C93.7880014,33.3839961 94.1759975,32.696003 94.672,32.104 C95.1680025,31.511997 95.7599966,31.0480017 96.448,30.712 C97.1360034,30.3759983 97.8879959,30.208 98.704,30.208 C99.6320046,30.208 100.467996,30.4319978 101.212,30.88 C101.956004,31.3280022 102.535998,31.9119964 102.952,32.632 L102.952,25.48 L106.168,25.48 L106.168,39.304 C106.168,39.6400017 106.223999,39.8799993 106.336,40.024 C106.448001,40.1680007 106.639999,40.2479999 106.912,40.264 L106.912,43 C106.351997,43.1120006 105.896002,43.168 105.544,43.168 C104.967997,43.168 104.496002,43.0240014 104.128,42.736 C103.759998,42.4479986 103.552,42.0720023 103.504,41.608 L103.432,40.816 C102.967998,41.616004 102.340004,42.219998 101.548,42.628 C100.755996,43.036002 99.9280043,43.24 99.064,43.24 Z M99.904,40.504 C100.208002,40.504 100.519998,40.4520005 100.84,40.348 C101.160002,40.2439995 101.455999,40.096001 101.728,39.904 C102.000001,39.711999 102.243999,39.4880013 102.46,39.232 C102.676001,38.9759987 102.839999,38.6960015 102.952,38.392 L102.952,35.392 C102.823999,35.0399982 102.644001,34.7160015 102.412,34.42 C102.179999,34.1239985 101.916001,33.8680011 101.62,33.652 C101.323999,33.4359989 101.012002,33.2640006 100.684,33.136 C100.355998,33.0079994 100.032002,32.944 99.712,32.944 C99.2319976,32.944 98.788002,33.047999 98.38,33.256 C97.971998,33.464001 97.6240014,33.7479982 97.336,34.108 C97.0479986,34.4680018 96.8240008,34.8799977 96.664,35.344 C96.5039992,35.8080023 96.424,36.2879975 96.424,36.784 C96.424,37.3120026 96.5119991,37.7999978 96.688,38.248 C96.8640009,38.6960022 97.1039985,39.0879983 97.408,39.424 C97.7120015,39.7600017 98.0759979,40.023999 98.5,40.216 C98.9240021,40.408001 99.3919974,40.504 99.904,40.504 Z M61.696,54.96 L65.896,63.168 L70.168,54.96 L73.744,54.96 L67.552,66.048 L67.552,72 L64.264,72 L64.264,66 L58.096,54.96 L61.696,54.96 Z M78.88,72.24 C77.8559949,72.24 76.9360041,72.0640018 76.12,71.712 C75.3039959,71.3599982 74.6120028,70.884003 74.044,70.284 C73.4759972,69.683997 73.0400015,68.9920039 72.736,68.208 C72.4319985,67.4239961 72.28,66.6000043 72.28,65.736 C72.28,64.8559956 72.4319985,64.0240039 72.736,63.24 C73.0400015,62.4559961 73.4759972,61.764003 74.044,61.164 C74.6120028,60.563997 75.3039959,60.0880018 76.12,59.736 C76.9360041,59.3839982 77.8559949,59.208 78.88,59.208 C79.9040051,59.208 80.819996,59.3839982 81.628,59.736 C82.436004,60.0880018 83.1239972,60.563997 83.692,61.164 C84.2600028,61.764003 84.6959985,62.4559961 85,63.24 C85.3040015,64.0240039 85.456,64.8559956 85.456,65.736 C85.456,66.6000043 85.3040015,67.4239961 85,68.208 C84.6959985,68.9920039 84.2640028,69.683997 83.704,70.284 C83.1439972,70.884003 82.4560041,71.3599982 81.64,71.712 C80.8239959,72.0640018 79.9040051,72.24 78.88,72.24 Z M75.592,65.736 C75.592,66.2960028 75.6759992,66.8039977 75.844,67.26 C76.0120008,67.7160023 76.2439985,68.1119983 76.54,68.448 C76.8360015,68.7840017 77.183998,69.0439991 77.584,69.228 C77.984002,69.4120009 78.4159977,69.504 78.88,69.504 C79.3440023,69.504 79.775998,69.4120009 80.176,69.228 C80.576002,69.0439991 80.9239985,68.7840017 81.22,68.448 C81.5160015,68.1119983 81.7479992,67.7120023 81.916,67.248 C82.0840008,66.7839977 82.168,66.2720028 82.168,65.712 C82.168,65.1679973 82.0840008,64.6640023 81.916,64.2 C81.7479992,63.7359977 81.5160015,63.3360017 81.22,63 C80.9239985,62.6639983 80.576002,62.4040009 80.176,62.22 C79.775998,62.0359991 79.3440023,61.944 78.88,61.944 C78.4159977,61.944 77.984002,62.039999 77.584,62.232 C77.183998,62.424001 76.8360015,62.6879983 76.54,63.024 C76.2439985,63.3600017 76.0120008,63.7599977 75.844,64.224 C75.6759992,64.6880023 75.592,65.1919973 75.592,65.736 Z M91.456,72.24 C90.1599935,72.24 89.1760034,71.8240042 88.504,70.992 C87.8319966,70.1599958 87.496,68.9280082 87.496,67.296 L87.496,59.424 L90.712,59.424 L90.712,66.6 C90.712,68.5360097 91.407993,69.504 92.8,69.504 C93.4240031,69.504 94.0279971,69.3160019 94.612,68.94 C95.1960029,68.5639981 95.6719982,67.9920038 96.04,67.224 L96.04,59.424 L99.256,59.424 L99.256,68.304 C99.256,68.6400017 99.3159994,68.8799993 99.436,69.024 C99.5560006,69.1680007 99.7519986,69.2479999 100.024,69.264 L100.024,72 C99.7039984,72.0640003 99.4360011,72.1039999 99.22,72.12 C99.0039989,72.1360001 98.8080009,72.144 98.632,72.144 C98.0559971,72.144 97.5880018,72.0120013 97.228,71.748 C96.8679982,71.4839987 96.6560003,71.1200023 96.592,70.656 L96.52,69.648 C95.9599972,70.5120043 95.2400044,71.1599978 94.36,71.592 C93.4799956,72.0240022 92.5120053,72.24 91.456,72.24 Z M109.936,62.208 C108.959995,62.2240001 108.088004,62.4119982 107.32,62.772 C106.551996,63.1320018 106.000002,63.6719964 105.664,64.392 L105.664,72 L102.448,72 L102.448,59.424 L105.4,59.424 L105.4,62.112 C105.624001,61.6799978 105.887998,61.2920017 106.192,60.948 C106.496002,60.6039983 106.823998,60.3040013 107.176,60.048 C107.528002,59.7919987 107.883998,59.5960007 108.244,59.46 C108.604002,59.3239993 108.951998,59.256 109.288,59.256 L109.684,59.256 C109.772,59.256 109.856,59.2639999 109.936,59.28 L109.936,62.208 Z M59.776,101 L59.776,83.96 L65.968,83.96 C67.360007,83.96 68.5799948,84.1839978 69.628,84.632 C70.6760052,85.0800022 71.5519965,85.6879962 72.256,86.456 C72.9600035,87.2240038 73.4879982,88.1239948 73.84,89.156 C74.1920018,90.1880052 74.368,91.2879942 74.368,92.456 C74.368,93.7520065 74.172002,94.9239948 73.78,95.972 C73.387998,97.0200052 72.8240037,97.9159963 72.088,98.66 C71.3519963,99.4040037 70.4680052,99.979998 69.436,100.388 C68.4039948,100.796002 67.2480064,101 65.968,101 L59.776,101 Z M71.032,92.456 C71.032,91.6399959 70.9200011,90.8880034 70.696,90.2 C70.4719989,89.5119966 70.1440022,88.9200025 69.712,88.424 C69.2799978,87.9279975 68.7480032,87.5440014 68.116,87.272 C67.4839968,86.9999986 66.768004,86.864 65.968,86.864 L63.088,86.864 L63.088,98.096 L65.968,98.096 C66.7840041,98.096 67.5079968,97.9520014 68.14,97.664 C68.7720032,97.3759986 69.2999979,96.9800025 69.724,96.476 C70.1480021,95.9719975 70.4719989,95.3760034 70.696,94.688 C70.9200011,93.9999966 71.032,93.256004 71.032,92.456 Z M84.136,91.208 C83.1599951,91.2240001 82.2880038,91.4119982 81.52,91.772 C80.7519962,92.1320018 80.2000017,92.6719964 79.864,93.392 L79.864,101 L76.648,101 L76.648,88.424 L79.6,88.424 L79.6,91.112 C79.8240011,90.6799978 80.0879985,90.2920017 80.392,89.948 C80.6960015,89.6039983 81.0239982,89.3040013 81.376,89.048 C81.7280018,88.7919987 82.0839982,88.5960007 82.444,88.46 C82.8040018,88.3239993 83.1519983,88.256 83.488,88.256 L83.884,88.256 C83.9720004,88.256 84.0559996,88.2639999 84.136,88.28 L84.136,91.208 Z M85.936,101 L85.936,88.424 L89.152,88.424 L89.152,101 L85.936,101 Z M85.936,86.672 L85.936,83.48 L89.152,83.48 L89.152,86.672 L85.936,86.672 Z M103.744,101 L100.528,101 L100.528,93.944 C100.528,92.935995 100.352002,92.2000023 100,91.736 C99.6479982,91.2719977 99.1600031,91.04 98.536,91.04 C98.2159984,91.04 97.8880017,91.1039994 97.552,91.232 C97.2159983,91.3600006 96.9000015,91.5399988 96.604,91.772 C96.3079985,92.0040012 96.0400012,92.2799984 95.8,92.6 C95.5599988,92.9200016 95.3840006,93.2719981 95.272,93.656 L95.272,101 L92.056,101 L92.056,88.424 L94.96,88.424 L94.96,90.752 C95.4240023,89.951996 96.0959956,89.3280022 96.976,88.88 C97.8560044,88.4319978 98.8479945,88.208 99.952,88.208 C100.736004,88.208 101.375998,88.3519986 101.872,88.64 C102.368002,88.9280014 102.751999,89.3039977 103.024,89.768 C103.296001,90.2320023 103.483999,90.759997 103.588,91.352 C103.692001,91.944003 103.744,92.543997 103.744,93.152 L103.744,101 Z M115.144,101 L111.496,95.552 L109.768,97.256 L109.768,101 L106.552,101 L106.552,83.48 L109.768,83.48 L109.768,94.112 L114.808,88.448 L118.24,88.448 L113.56,93.776 L118.576,101 L115.144,101 Z" id="Find-Your-Drink" fill="#7D7D7D"></path>
                </g>
            </g>
        </g>
    </g>
</svg>
